<svg width="37" height="34" viewBox="0 0 37 34" fill="none" xmlns="http://www.w3.org/2000/svg">
<path d="M2.61538 13.0769H34V10.4615C34 9.76784 33.7244 9.10261 33.234 8.61213C32.7435 8.12165 32.0783 7.8461 31.3846 7.8461H5.23077C4.53713 7.8461 3.87189 8.12165 3.38141 8.61213C2.89093 9.10261 2.61538 9.76784 2.61538 10.4615V13.0769ZM2.61538 15.6923V28.7692C2.61538 29.4628 2.89093 30.128 3.38141 30.6185C3.87189 31.109 4.53713 31.3846 5.23077 31.3846H31.3846C32.0783 31.3846 32.7435 31.109 33.234 30.6185C33.7244 30.128 34 29.4628 34 28.7692V15.6923H2.61538ZM5.23077 5.23071H31.3846C32.7719 5.23071 34.1024 5.78181 35.0833 6.76277C36.0643 7.74373 36.6154 9.0742 36.6154 10.4615V28.7692C36.6154 30.1565 36.0643 31.4869 35.0833 32.4679C34.1024 33.4488 32.7719 33.9999 31.3846 33.9999H5.23077C3.84348 33.9999 2.51302 33.4488 1.53206 32.4679C0.551097 31.4869 0 30.1565 0 28.7692V10.4615C0 9.0742 0.551097 7.74373 1.53206 6.76277C2.51302 5.78181 3.84348 5.23071 5.23077 5.23071Z" fill="#D3AF37"/>
<path d="M13.0769 2.61538V5.23077H23.5384V2.61538H13.0769ZM13.0769 0H23.5384C24.2321 0 24.8973 0.275549 25.3878 0.766028C25.8782 1.25651 26.1538 1.92174 26.1538 2.61538V5.23077C26.1538 5.92441 25.8782 6.58965 25.3878 7.08012C24.8973 7.5706 24.2321 7.84615 23.5384 7.84615H13.0769C12.3832 7.84615 11.718 7.5706 11.2275 7.08012C10.737 6.58965 10.4615 5.92441 10.4615 5.23077V2.61538C10.4615 1.92174 10.737 1.25651 11.2275 0.766028C11.718 0.275549 12.3832 0 13.0769 0Z" fill="#D3AF37"/>
</svg>
