<svg width="33" height="28" viewBox="0 0 33 28" fill="none" xmlns="http://www.w3.org/2000/svg">
<path d="M31.2299 25.8469H29.0761V10.7703C29.0761 10.1991 28.8492 9.6513 28.4453 9.24738C28.0414 8.84347 27.4936 8.61655 26.9224 8.61655H18.3072V2.15519C18.3075 1.76517 18.2018 1.3824 18.0015 1.04774C17.8012 0.713075 17.5138 0.439079 17.17 0.254995C16.8261 0.0709118 16.4388 -0.01635 16.0492 0.0025238C15.6596 0.0213976 15.2825 0.145699 14.9581 0.36216L4.18912 7.53966C3.8937 7.73676 3.6516 8.00385 3.48438 8.31715C3.31716 8.63046 3.23001 8.98024 3.23068 9.33538V25.8469H1.07689C0.791284 25.8469 0.517372 25.9603 0.315415 26.1623C0.113458 26.3642 0 26.6381 0 26.9238C0 27.2094 0.113458 27.4833 0.315415 27.6852C0.517372 27.8872 0.791284 28.0006 1.07689 28.0006H31.2299C31.5155 28.0006 31.7895 27.8872 31.9914 27.6852C32.1934 27.4833 32.3068 27.2094 32.3068 26.9238C32.3068 26.6381 32.1934 26.3642 31.9914 26.1623C31.7895 25.9603 31.5155 25.8469 31.2299 25.8469ZM26.9224 10.7703V25.8469H18.3072V10.7703H26.9224ZM5.38447 9.33538L16.1534 2.15519V25.8469H5.38447V9.33538ZM13.9996 12.9241V15.0779C13.9996 15.3635 13.8862 15.6374 13.6842 15.8394C13.4823 16.0414 13.2083 16.1548 12.9227 16.1548C12.6371 16.1548 12.3632 16.0414 12.1613 15.8394C11.9593 15.6374 11.8458 15.3635 11.8458 15.0779V12.9241C11.8458 12.6385 11.9593 12.3646 12.1613 12.1627C12.3632 11.9607 12.6371 11.8472 12.9227 11.8472C13.2083 11.8472 13.4823 11.9607 13.6842 12.1627C13.8862 12.3646 13.9996 12.6385 13.9996 12.9241ZM9.69205 12.9241V15.0779C9.69205 15.3635 9.57859 15.6374 9.37663 15.8394C9.17468 16.0414 8.90076 16.1548 8.61515 16.1548C8.32954 16.1548 8.05563 16.0414 7.85368 15.8394C7.65172 15.6374 7.53826 15.3635 7.53826 15.0779V12.9241C7.53826 12.6385 7.65172 12.3646 7.85368 12.1627C8.05563 11.9607 8.32954 11.8472 8.61515 11.8472C8.90076 11.8472 9.17468 11.9607 9.37663 12.1627C9.57859 12.3646 9.69205 12.6385 9.69205 12.9241ZM9.69205 20.4624V22.6162C9.69205 22.9018 9.57859 23.1757 9.37663 23.3777C9.17468 23.5796 8.90076 23.6931 8.61515 23.6931C8.32954 23.6931 8.05563 23.5796 7.85368 23.3777C7.65172 23.1757 7.53826 22.9018 7.53826 22.6162V20.4624C7.53826 20.1768 7.65172 19.9029 7.85368 19.7009C8.05563 19.499 8.32954 19.3855 8.61515 19.3855C8.90076 19.3855 9.17468 19.499 9.37663 19.7009C9.57859 19.9029 9.69205 20.1768 9.69205 20.4624ZM13.9996 20.4624V22.6162C13.9996 22.9018 13.8862 23.1757 13.6842 23.3777C13.4823 23.5796 13.2083 23.6931 12.9227 23.6931C12.6371 23.6931 12.3632 23.5796 12.1613 23.3777C11.9593 23.1757 11.8458 22.9018 11.8458 22.6162V20.4624C11.8458 20.1768 11.9593 19.9029 12.1613 19.7009C12.3632 19.499 12.6371 19.3855 12.9227 19.3855C13.2083 19.3855 13.4823 19.499 13.6842 19.7009C13.8862 19.9029 13.9996 20.1768 13.9996 20.4624Z" fill="white"/>
</svg>
