<svg width="30" height="24" viewBox="0 0 30 24" fill="none" xmlns="http://www.w3.org/2000/svg">
<path d="M4.73684 0H25.2632C26.5194 0 27.7243 0.499059 28.6126 1.38739C29.5009 2.27572 30 3.48055 30 4.73684V18.9474C30 20.2037 29.5009 21.4085 28.6126 22.2968C27.7243 23.1852 26.5194 23.6842 25.2632 23.6842H4.73684C3.48055 23.6842 2.27572 23.1852 1.38739 22.2968C0.499059 21.4085 0 20.2037 0 18.9474V4.73684C0 3.48055 0.499059 2.27572 1.38739 1.38739C2.27572 0.499059 3.48055 0 4.73684 0ZM4.73684 1.57895C3.94737 1.57895 3.25263 1.84737 2.71579 2.32105L15 10.2632L27.2842 2.32105C26.7474 1.84737 26.0526 1.57895 25.2632 1.57895H4.73684ZM15 12.1737L1.78421 3.6C1.65789 3.94737 1.57895 4.3421 1.57895 4.73684V18.9474C1.57895 19.7849 1.91165 20.5881 2.50387 21.1803C3.09609 21.7726 3.89932 22.1053 4.73684 22.1053H25.2632C26.1007 22.1053 26.9039 21.7726 27.4961 21.1803C28.0883 20.5881 28.4211 19.7849 28.4211 18.9474V4.73684C28.4211 4.3421 28.3421 3.94737 28.2158 3.6L15 12.1737Z" fill="#D3AF37"/>
</svg>
