<svg width="40" height="36" viewBox="0 0 40 36" fill="none" xmlns="http://www.w3.org/2000/svg">
<path d="M27.1015 34.4349V30.7682C27.1015 28.8233 26.3288 26.958 24.9536 25.5828C23.5783 24.2075 21.713 23.4349 19.7681 23.4349H8.76812C6.8232 23.4349 4.95793 24.2075 3.58267 25.5828C2.2074 26.958 1.43478 28.8233 1.43478 30.7682V34.4349M27.1015 1.66956C28.674 2.07723 30.0667 2.99554 31.0609 4.28034C32.0551 5.56513 32.5945 7.14369 32.5945 8.76822C32.5945 10.3928 32.0551 11.9713 31.0609 13.2561C30.0667 14.5409 28.674 15.4592 27.1015 15.8669M38.1015 34.4349V30.7682C38.1002 29.1434 37.5594 27.565 36.564 26.2808C35.5685 24.9966 34.1747 24.0794 32.6015 23.6732" stroke="#D3AF37" stroke-width="2.86957" stroke-linecap="round" stroke-linejoin="round"/>
<path d="M14.2681 16.1015C18.3182 16.1015 21.6014 12.8182 21.6014 8.76815C21.6014 4.71806 18.3182 1.43481 14.2681 1.43481C10.218 1.43481 6.93478 4.71806 6.93478 8.76815C6.93478 12.8182 10.218 16.1015 14.2681 16.1015Z" stroke="#D3AF37" stroke-width="2.86957" stroke-linecap="round" stroke-linejoin="round"/>
</svg>
