<svg width="40" height="37" viewBox="0 0 40 37" fill="none" xmlns="http://www.w3.org/2000/svg">
<path d="M19.8336 1.41663V34M19.8336 34C17.0532 34 14.3899 34.5005 11.9286 35.4166M19.8336 34C22.6141 34 25.2774 34.5005 27.7386 35.4166M32.5836 5.13774C28.3598 4.54225 24.0992 4.24559 19.8336 4.24996C15.5062 4.24996 11.2486 4.55218 7.08363 5.13774M32.5836 5.13774C34.4914 5.40848 36.3803 5.73588 38.2503 6.11996M32.5836 5.13774L37.5325 25.398C37.763 26.3405 37.3323 27.3397 36.42 27.6684C35.1891 28.1097 33.8912 28.3346 32.5836 28.3333C31.2761 28.3346 29.9781 28.1097 28.7473 27.6684C27.835 27.3397 27.4043 26.3405 27.6328 25.398L32.5836 5.13774ZM7.08363 5.13774C5.17585 5.40848 3.28696 5.73588 1.41696 6.11996M7.08363 5.13774L12.0325 25.398C12.263 26.3405 11.8323 27.3397 10.92 27.6684C9.68911 28.1097 8.39119 28.3346 7.08363 28.3333C5.77607 28.3346 4.47814 28.1097 3.2473 27.6684C2.33496 27.3397 1.90429 26.3405 2.13285 25.398L7.08363 5.13774Z" stroke="#D3AF37" stroke-width="2.83333" stroke-linecap="round" stroke-linejoin="round"/>
</svg>
