<svg width="40" height="42" viewBox="0 0 40 42" fill="none" xmlns="http://www.w3.org/2000/svg">
<path d="M25.5652 39.5662V23.5662C25.5652 23.0357 25.3545 22.527 24.9794 22.1519C24.6043 21.7769 24.0956 21.5662 23.5652 21.5662H15.5652C15.0348 21.5662 14.526 21.7769 14.151 22.1519C13.7759 22.527 13.5652 23.0357 13.5652 23.5662V39.5662" stroke="#D3AF37" stroke-width="3.13043" stroke-linecap="round" stroke-linejoin="round"/>
<path d="M1.56519 17.5661C1.56505 16.9843 1.69185 16.4094 1.93676 15.8816C2.18167 15.3538 2.53878 14.8857 2.98319 14.5101L16.9832 2.51014C17.7052 1.89996 18.6199 1.56519 19.5652 1.56519C20.5105 1.56519 21.4252 1.89996 22.1472 2.51014L36.1472 14.5101C36.5916 14.8857 36.9487 15.3538 37.1936 15.8816C37.4385 16.4094 37.5653 16.9843 37.5652 17.5661V35.5661C37.5652 36.627 37.1438 37.6444 36.3936 38.3946C35.6435 39.1447 34.6261 39.5661 33.5652 39.5661H5.56519C4.50432 39.5661 3.4869 39.1447 2.73676 38.3946C1.98661 37.6444 1.56519 36.627 1.56519 35.5661V17.5661Z" stroke="#D3AF37" stroke-width="3.13043" stroke-linecap="round" stroke-linejoin="round"/>
</svg>
