<svg width="31" height="31" viewBox="0 0 31 31" fill="none" xmlns="http://www.w3.org/2000/svg">
<path d="M29.6554 15.4055C29.6554 11.6262 28.1541 8.00164 25.4817 5.32925C22.8093 2.65685 19.1847 1.15552 15.4054 1.15552M29.6554 15.4055H1.1554M29.6554 15.4055C29.6554 19.1849 28.1541 22.8094 25.4817 25.4818C22.8093 28.1542 19.1847 29.6555 15.4054 29.6555M15.4054 1.15552C11.6261 1.15552 8.00153 2.65685 5.32913 5.32925C2.65674 8.00164 1.1554 11.6262 1.1554 15.4055M15.4054 1.15552C14.6351 1.15552 9.24324 7.5349 9.24324 15.4055C9.24324 23.2761 14.6351 29.6555 15.4054 29.6555M15.4054 1.15552C16.1757 1.15552 21.5676 7.5349 21.5676 15.4055C21.5676 23.2761 16.1757 29.6555 15.4054 29.6555M1.1554 15.4055C1.1554 19.1849 2.65674 22.8094 5.32913 25.4818C8.00153 28.1542 11.6261 29.6555 15.4054 29.6555" stroke="white" stroke-width="2.31081" stroke-linecap="round" stroke-linejoin="round"/>
</svg>
