<svg width="27" height="40" viewBox="0 0 27 40" fill="none" xmlns="http://www.w3.org/2000/svg">
<path d="M17.2632 30.5965V28.5965C17.2632 26.1798 19.8915 23.894 21.5965 22.2632C23.9999 19.9657 25.2632 16.879 25.2632 13.2632C25.2632 6.59655 19.9524 1.26323 13.2632 1.26323C11.6861 1.25883 10.1237 1.56622 8.66582 2.16771C7.20792 2.76921 5.88331 3.65295 4.76813 4.76813C3.65295 5.88331 2.76921 7.20792 2.16771 8.66582C1.56622 10.1237 1.25883 11.6861 1.26323 13.2632C1.26323 16.7499 2.58073 20.0457 4.92989 22.2632C6.62572 23.864 9.26321 26.1549 9.26321 28.5965V30.5965M10.5965 38.5965H15.9299M9.26321 34.5965H17.2632M13.2632 30.5965V19.9299" stroke="#D3AF37" stroke-width="2.52632" stroke-linecap="round" stroke-linejoin="round"/>
<path d="M16.4298 18.5967C16.4298 18.5967 14.6373 19.93 13.2631 19.93C11.8889 19.93 10.0964 18.5967 10.0964 18.5967" stroke="#D3AF37" stroke-width="2.52632" stroke-linecap="round" stroke-linejoin="round"/>
</svg>
