<svg width="32" height="40" viewBox="0 0 32 40" fill="none" xmlns="http://www.w3.org/2000/svg">
<path d="M9.46452 9.46452H21.7502M9.46452 17.655H21.7502M9.46452 25.8455H17.655M1.27405 5.36929C1.27405 4.28316 1.70551 3.24152 2.47352 2.47352C3.24152 1.70551 4.28316 1.27405 5.36929 1.27405H25.8455C26.9316 1.27405 27.9732 1.70551 28.7412 2.47352C29.5093 3.24152 29.9407 4.28316 29.9407 5.36929V34.036C29.9407 35.1221 29.5093 36.1637 28.7412 36.9317C27.9732 37.6997 26.9316 38.1312 25.8455 38.1312H5.36929C4.28316 38.1312 3.24152 37.6997 2.47352 36.9317C1.70551 36.1637 1.27405 35.1221 1.27405 34.036V5.36929Z" stroke="#D3AF37" stroke-width="2.54815" stroke-linecap="round" stroke-linejoin="round"/>
</svg>
