<svg width="19" height="27" viewBox="0 0 19 27" fill="none" xmlns="http://www.w3.org/2000/svg">
<path d="M9.37067 0.937012C4.71462 0.937012 0.937065 4.53242 0.937065 8.96065C0.937065 14.056 6.55947 22.1306 8.62395 24.9195C8.70964 25.0372 8.82196 25.133 8.95173 25.1991C9.08151 25.2651 9.22506 25.2996 9.37067 25.2996C9.51629 25.2996 9.65984 25.2651 9.78962 25.1991C9.91939 25.133 10.0317 25.0372 10.1174 24.9195C12.1819 22.1317 17.8043 14.0601 17.8043 8.96065C17.8043 4.53242 14.0267 0.937012 9.37067 0.937012Z" stroke="#D3AF37" stroke-width="1.87414" stroke-linecap="round" stroke-linejoin="round"/>
<path d="M9.37067 12.1817C10.9233 12.1817 12.1819 10.9231 12.1819 9.37053C12.1819 7.81794 10.9233 6.55933 9.37067 6.55933C7.81808 6.55933 6.55946 7.81794 6.55946 9.37053C6.55946 10.9231 7.81808 12.1817 9.37067 12.1817Z" stroke="#D3AF37" stroke-width="1.87414" stroke-linecap="round" stroke-linejoin="round"/>
</svg>
