<svg width="26" height="26" viewBox="0 0 26 26" fill="none" xmlns="http://www.w3.org/2000/svg">
<path d="M24.0005 19.5566C23.0844 18.6336 20.8656 17.2865 19.7891 16.7436C18.3872 16.0375 18.2718 15.9798 17.1699 16.7984C16.4349 17.3448 15.9463 17.8328 15.0861 17.6494C14.2259 17.4659 12.3567 16.4315 10.72 14.8C9.08333 13.1685 7.98893 11.2451 7.80489 10.3878C7.62086 9.5305 8.117 9.04762 8.65815 8.31091C9.42082 7.27247 9.36313 7.09939 8.71122 5.6975C8.20296 4.60713 6.81664 2.4091 5.89012 1.49758C4.89899 0.518561 4.89899 0.691634 4.26035 0.957013C3.7404 1.17573 3.24159 1.44164 2.77019 1.75142C1.84713 2.36468 1.33483 2.87409 0.976566 3.63965C0.618304 4.40521 0.457346 6.19999 2.3075 9.56107C4.15766 12.9222 5.45571 14.6408 8.14239 17.32C10.8291 19.9991 12.895 21.4397 15.9151 23.1335C19.6512 25.226 21.0842 24.8181 21.8521 24.4604C22.62 24.1027 23.1317 23.595 23.7461 22.672C24.0567 22.2014 24.3232 21.7031 24.5423 21.1835C24.8082 20.5472 24.9813 20.5472 24.0005 19.5566Z" stroke="#D3AF37" stroke-width="1.5" stroke-miterlimit="10"/>
</svg>
