<svg width="21" height="30" viewBox="0 0 21 30" fill="none" xmlns="http://www.w3.org/2000/svg">
<path d="M13.8629 12.7189L19.0195 1.0376M7.00762 12.9776L1.03764 1.0376M11.7742 12.1698L6.34229 1.0376M13.9846 1.0376L12.546 4.49565M2.42086 20.4027C2.42086 22.6038 3.29525 24.7148 4.85168 26.2712C6.4081 27.8276 8.51907 28.702 10.7202 28.702C12.9213 28.702 15.0323 27.8276 16.5887 26.2712C18.1451 24.7148 19.0195 22.6038 19.0195 20.4027C19.0195 18.2016 18.1451 16.0906 16.5887 14.5342C15.0323 12.9778 12.9213 12.1034 10.7202 12.1034C8.51907 12.1034 6.4081 12.9778 4.85168 14.5342C3.29525 16.0906 2.42086 18.2016 2.42086 20.4027Z" stroke="white" stroke-width="2.07483" stroke-linecap="round" stroke-linejoin="round"/>
</svg>
